# xmcd
#
# Track frame offsets:
# 150
# 27047
# 43345
# 64335
# 86333
# 107176
# 129273
# 152518
# 178156
# 195095
#
# Disc length: 2803 seconds
#
#
# Revision: 0
# Processed by: cddbd v1.5PL3 Copyright (c) Steve Scherf et al.
# Submitted via: FreeRIP 2.70 
#
DISCID=790af10a
DTITLE=HOUSE OF LORDS - Demons Down
DYEAR=1992
DGENRE=Hard Rock
TTITLE0=O Father
TTITLE1=Demons Down
TTITLE2=What's Forever For
TTITLE3=Talkin' 'Bout Love
TTITLE4=Spirit Of Love
TTITLE5=Down, Down, Down
TTITLE6=Metallic Blue
TTITLE7=Inside You
TTITLE8=Johnny's Got A Mind Of His Own
TTITLE9=Can't Fight Love
EXTD=YEAR: 1992
EXTT0=
EXTT1=
EXTT2=
EXTT3=
EXTT4=
EXTT5=
EXTT6=
EXTT7=
EXTT8=
EXTT9=
PLAYORDER=
